HIERARCHY
ROOT pelvis
{
	OFFSET 0.003123 -0.351407 0.012037
	CHANNELS 6 Xposition Yposition Zposition Zrotation Yrotation Xrotation 
	JOINT left_hip
	{
		OFFSET 0.058189 -0.092763 -0.026001
		CHANNELS 3 Zrotation Yrotation Xrotation
		JOINT left_knee
		{
			OFFSET 0.054695 -0.378753 -0.009396
			CHANNELS 3 Zrotation Yrotation Xrotation
			JOINT left_ankle
			{
				OFFSET -0.043453 -0.403059 -0.031876
				CHANNELS 3 Zrotation Yrotation Xrotation
				JOINT left_foot
				{
					OFFSET 0.047257 -0.057997 0.118216
					CHANNELS 3 Zrotation Yrotation Xrotation
					End Site
					{
						OFFSET 0.000000 0.000000 0.000000
					}
				}
			}
		}
	}
	JOINT right_hip
	{
		OFFSET -0.063267 -0.103908 -0.021250
		CHANNELS 3 Zrotation Yrotation Xrotation
		JOINT right_knee
		{
			OFFSET -0.044210 -0.362380 -0.016824
			CHANNELS 3 Zrotation Yrotation Xrotation
			JOINT right_ankle
			{
				OFFSET 0.015417 -0.410728 -0.020192
				CHANNELS 3 Zrotation Yrotation Xrotation
				JOINT right_foot
				{
					OFFSET -0.038812 -0.058328 0.119049
					CHANNELS 3 Zrotation Yrotation Xrotation
					End Site
					{
						OFFSET 0.000000 0.000000 0.000000
					}
				}
			}
		}
	}
	JOINT spine_1
	{
		OFFSET -0.002763 0.109891 -0.027618
		CHANNELS 3 Zrotation Yrotation Xrotation
		JOINT spine_2
		{
			OFFSET 0.009448 0.131853 -0.005940
			CHANNELS 3 Zrotation Yrotation Xrotation
			JOINT spine_3
			{
				OFFSET -0.011330 0.052235 0.028447
				CHANNELS 3 Zrotation Yrotation Xrotation
				JOINT neck
				{
					OFFSET -0.012164 0.165167 -0.031615
					CHANNELS 3 Zrotation Yrotation Xrotation
					JOINT head
					{
						OFFSET 0.024783 0.160452 0.020737
						CHANNELS 3 Zrotation Yrotation Xrotation
						End Site
						{
							OFFSET 0.000000 0.000000 0.000000
						}
					}
				}
				JOINT left_collar
				{
					OFFSET 0.046364 0.084944 -0.007220
					CHANNELS 3 Zrotation Yrotation Xrotation
					JOINT left_shoulder
					{
						OFFSET 0.119239 0.057728 -0.015461
						CHANNELS 3 Zrotation Yrotation Xrotation
						JOINT left_elbow
						{
							OFFSET 0.254123 -0.072151 -0.042459
							CHANNELS 3 Zrotation Yrotation Xrotation
							JOINT left_wrist
							{
								OFFSET 0.251987 0.023221 -0.002472
								CHANNELS 3 Zrotation Yrotation Xrotation
								JOINT left_index_1
								{
									OFFSET 0.101902 -0.008688 0.019351
									CHANNELS 3 Zrotation Yrotation Xrotation
									JOINT left_index_2
									{
										OFFSET 0.030149 -0.011154 0.001151
										CHANNELS 3 Zrotation Yrotation Xrotation
										JOINT left_index_3
										{
											OFFSET 0.006504 -0.021577 -0.002433
											CHANNELS 3 Zrotation Yrotation Xrotation
											End Site
											{
												OFFSET 0.000000 0.000000 0.000000
											}
										}
									}
								}
								JOINT left_middle_1
								{
									OFFSET 0.109398 -0.006328 -0.003981
									CHANNELS 3 Zrotation Yrotation Xrotation
									JOINT left_middle_2
									{
										OFFSET 0.026472 -0.015218 -0.004641
										CHANNELS 3 Zrotation Yrotation Xrotation
										JOINT left_middle_3
										{
											OFFSET 0.005022 -0.023347 -0.001911
											CHANNELS 3 Zrotation Yrotation Xrotation
											End Site
											{
												OFFSET 0.000000 0.000000 0.000000
											}
										}
									}
								}
								JOINT left_pinky_1
								{
									OFFSET 0.084047 -0.014539 -0.043750
									CHANNELS 3 Zrotation Yrotation Xrotation
									JOINT left_pinky_2
									{
										OFFSET 0.012124 -0.014448 -0.005375
										CHANNELS 3 Zrotation Yrotation Xrotation
										JOINT left_pinky_3
										{
											OFFSET 0.003798 -0.018853 0.000167
											CHANNELS 3 Zrotation Yrotation Xrotation
											End Site
											{
												OFFSET 0.000000 0.000000 0.000000
											}
										}
									}
								}
								JOINT left_ring_1
								{
									OFFSET 0.097444 -0.009268 -0.027345
									CHANNELS 3 Zrotation Yrotation Xrotation
									JOINT left_ring_2
									{
										OFFSET 0.023561 -0.016057 -0.001895
										CHANNELS 3 Zrotation Yrotation Xrotation
										JOINT left_ring_3
										{
											OFFSET 0.004257 -0.023548 0.000814
											CHANNELS 3 Zrotation Yrotation Xrotation
											End Site
											{
												OFFSET 0.000000 0.000000 0.000000
											}
										}
									}
								}
								JOINT left_thumb_1
								{
									OFFSET 0.040636 -0.017977 0.025611
									CHANNELS 3 Zrotation Yrotation Xrotation
									JOINT left_thumb_2
									{
										OFFSET 0.021637 -0.017639 0.011623
										CHANNELS 3 Zrotation Yrotation Xrotation
										JOINT left_thumb_3
										{
											OFFSET 0.024002 -0.008356 0.006548
											CHANNELS 3 Zrotation Yrotation Xrotation
											End Site
											{
												OFFSET 0.000000 0.000000 0.000000
											}
										}
									}
								}
							}
						}
					}
				}
				JOINT right_collar
				{
					OFFSET -0.047695 0.084339 -0.013400
					CHANNELS 3 Zrotation Yrotation Xrotation
					JOINT right_shoulder
					{
						OFFSET -0.102578 0.053524 -0.012669
						CHANNELS 3 Zrotation Yrotation Xrotation
						JOINT right_elbow
						{
							OFFSET -0.271150 -0.036492 -0.026467
							CHANNELS 3 Zrotation Yrotation Xrotation
							JOINT right_wrist
							{
								OFFSET -0.249267 -0.004533 -0.015325
								CHANNELS 3 Zrotation Yrotation Xrotation
								JOINT right_index_1
								{
									OFFSET -0.099881 -0.011783 0.019600
									CHANNELS 3 Zrotation Yrotation Xrotation
									JOINT right_index_2
									{
										OFFSET -0.030148 -0.011154 0.001151
										CHANNELS 3 Zrotation Yrotation Xrotation
										JOINT right_index_3
										{
											OFFSET -0.006505 -0.021577 -0.002432
											CHANNELS 3 Zrotation Yrotation Xrotation
											End Site
											{
												OFFSET 0.000000 0.000000 0.000000
											}
										}
									}
								}
								JOINT right_middle_1
								{
									OFFSET -0.107376 -0.009422 -0.003734
									CHANNELS 3 Zrotation Yrotation Xrotation
									JOINT right_middle_2
									{
										OFFSET -0.026472 -0.015218 -0.004641
										CHANNELS 3 Zrotation Yrotation Xrotation
										JOINT right_middle_3
										{
											OFFSET -0.005022 -0.023347 -0.001911
											CHANNELS 3 Zrotation Yrotation Xrotation
											End Site
											{
												OFFSET 0.000000 0.000000 0.000000
											}
										}
									}
								}
								JOINT right_pinky_1
								{
									OFFSET -0.082027 -0.017634 -0.043503
									CHANNELS 3 Zrotation Yrotation Xrotation
									JOINT right_pinky_2
									{
										OFFSET -0.012123 -0.014448 -0.005374
										CHANNELS 3 Zrotation Yrotation Xrotation
										JOINT right_pinky_3
										{
											OFFSET -0.003798 -0.018852 0.000167
											CHANNELS 3 Zrotation Yrotation Xrotation
											End Site
											{
												OFFSET 0.000000 0.000000 0.000000
											}
										}
									}
								}
								JOINT right_ring_1
								{
									OFFSET -0.095423 -0.012362 -0.027099
									CHANNELS 3 Zrotation Yrotation Xrotation
									JOINT right_ring_2
									{
										OFFSET -0.023561 -0.016057 -0.001895
										CHANNELS 3 Zrotation Yrotation Xrotation
										JOINT right_ring_3
										{
											OFFSET -0.004257 -0.023548 0.000816
											CHANNELS 3 Zrotation Yrotation Xrotation
											End Site
											{
												OFFSET 0.000000 0.000000 0.000000
											}
										}
									}
								}
								JOINT right_thumb_1
								{
									OFFSET -0.038613 -0.021074 0.025861
									CHANNELS 3 Zrotation Yrotation Xrotation
									JOINT right_thumb_2
									{
										OFFSET -0.021636 -0.017639 0.011623
										CHANNELS 3 Zrotation Yrotation Xrotation
										JOINT right_thumb_3
										{
											OFFSET -0.024004 -0.008353 0.006547
											CHANNELS 3 Zrotation Yrotation Xrotation
											End Site
											{
												OFFSET 0.000000 0.000000 0.000000
											}
										}
									}
								}
							}
						}
					}
				}
			}
		}
	}
}
MOTION
Frames: 6
Frame Time: 0.050000
0.424973 0.660019 0.909988 -147.933558 -68.274554 132.422125 -66.381567 9.630012 -68.291518 125.302459 19.228830 16.132769 -98.972683 -2.797357 93.630765 0.000000 0.000000 0.000000 -54.411480 28.867443 -38.314480 98.600170 47.437516 4.565504 -105.234039 -48.763797 111.489279 0.000000 0.000000 0.000000 28.693115 5.114708 48.714362 4.098286 -3.817702 -19.462669 -9.856059 -28.714807 29.399091 -3.798315 1.158442 -9.444071 0.000000 0.000000 0.000000 -2.731427 3.295477 6.871990 -31.455763 -34.970881 4.949395 -5.862115 -14.384216 1.968513 6.736820 -18.203156 -31.658494 -18.530228 -9.999391 3.340876 -15.553295 -22.028671 -11.467140 0.000000 0.000000 0.000000 -52.898516 -45.019871 10.940895 -83.696042 -44.452137 -62.691726 0.000000 0.000000 0.000000 -4.968043 -24.689406 -22.638624 -9.355183 -24.601326 -62.719561 0.000000 0.000000 0.000000 -39.898413 -36.683114 0.406549 -138.446799 16.897346 -37.997919 0.000000 0.000000 0.000000 28.696996 -2.657355 -9.604707 -25.500472 -0.792620 9.938492 0.000000 0.000000 0.000000 -17.070610 9.806163 9.047141 -37.023182 32.525234 -24.689450 -60.396132 5.463923 -27.823998 -43.060899 15.811645 -63.967895 37.074095 69.097716 39.971928 140.134475 4.301325 -19.765648 0.000000 0.000000 0.000000 65.019878 55.283561 13.482044 98.580956 31.715969 -26.835438 0.000000 0.000000 0.000000 -7.119924 21.980589 -28.966870 -20.083622 -0.192401 2.086524 0.000000 0.000000 0.000000 49.808620 44.158505 -0.446739 120.174985 6.019978 -6.083058 0.000000 0.000000 0.000000 -40.522060 -4.459841 -18.173387 40.782521 2.545398 11.336301 0.000000 0.000000 0.000000 
0.424973 0.660019 0.907349 -150.158420 -67.463270 134.581425 -65.861028 9.855158 -69.376472 125.586309 18.519142 16.586579 -99.146668 -3.000870 93.597265 0.000000 0.000000 0.000000 -54.365227 28.779676 -39.610235 99.722273 47.305780 5.760844 -105.996566 -48.690156 112.221088 0.000000 0.000000 0.000000 26.879974 5.372931 48.783952 4.272910 -3.433130 -18.753065 -8.929443 -27.920486 28.855167 -3.955195 1.187436 -9.271359 0.000000 0.000000 0.000000 -3.356957 3.443082 7.022427 -30.688866 -34.365457 4.217937 -5.698985 -14.823155 2.034198 6.386705 -18.795364 -31.057327 -18.191317 -8.568746 3.041453 -17.832259 -22.594975 -10.819544 0.000000 0.000000 0.000000 -54.613067 -50.577499 13.860131 -113.066463 -28.256395 -50.455284 0.000000 0.000000 0.000000 -4.259184 -22.682682 -21.021265 -24.420217 -31.667586 -61.840635 0.000000 0.000000 0.000000 -40.712064 -36.366648 0.572655 -125.152672 1.358812 -31.318819 0.000000 0.000000 0.000000 29.051051 -2.048826 -9.592428 -25.014206 -0.821869 9.701090 0.000000 0.000000 0.000000 -16.962011 10.301667 9.287979 -37.141614 32.691236 -24.935500 -60.596958 5.710187 -27.858789 -43.025122 15.042225 -66.207800 37.917195 70.131406 44.373633 139.382574 9.757827 -21.270889 0.000000 0.000000 0.000000 65.139059 64.352535 18.673069 67.999485 51.208492 -61.450887 0.000000 0.000000 0.000000 0.003753 26.174611 -31.096167 -9.539499 -0.097001 0.445478 0.000000 0.000000 0.000000 49.614457 47.099010 -0.357651 127.359671 2.397710 -6.869917 0.000000 0.000000 0.000000 -40.247576 -3.251243 -18.059721 42.932368 0.191292 12.796255 0.000000 0.000000 0.000000 
0.424973 0.660019 0.907349 -150.158420 -67.463270 134.581425 -65.818242 9.864932 -69.357702 125.570034 18.495669 16.622247 -99.169568 -2.979854 93.609088 0.000000 0.000000 0.000000 -54.365227 28.779676 -39.610235 99.722273 47.305780 5.760844 -105.996566 -48.690156 112.221088 0.000000 0.000000 0.000000 26.879974 5.372931 48.783952 4.607993 -3.467362 -19.644788 -10.268961 -27.242005 30.141434 -3.113138 0.898876 -9.068063 0.000000 0.000000 0.000000 -1.975867 3.104477 6.269573 -31.817129 -34.095316 5.227588 -5.681985 -14.477474 1.978867 6.865912 -20.399259 -31.425786 -17.727121 -8.797066 2.994173 -24.709539 -21.161669 -4.555891 0.000000 0.000000 0.000000 -50.041341 -44.721017 9.470450 -118.957904 -17.598695 -44.294683 0.000000 0.000000 0.000000 -3.464628 -24.032484 -22.568796 -102.728515 -17.884288 -24.144021 0.000000 0.000000 0.000000 -39.736813 -31.239542 0.788531 28.562774 -52.811441 -126.120195 0.000000 0.000000 0.000000 30.219799 1.820686 -8.217000 -29.684296 -7.291029 9.971105 0.000000 0.000000 0.000000 -15.982017 9.941317 8.261872 -35.691596 32.973457 -24.010963 -60.718937 7.188540 -28.733237 -41.196682 15.849863 -66.307033 33.631652 60.761215 33.304918 136.112627 -3.035070 -23.352981 0.000000 0.000000 0.000000 53.058143 65.186509 11.493871 60.004446 53.559867 -71.464342 0.000000 0.000000 0.000000 9.340324 35.019568 -37.064983 -18.313637 -2.510017 59.000436 0.000000 0.000000 0.000000 37.766763 49.051547 -6.478169 145.942133 -1.868884 -8.533355 0.000000 0.000000 0.000000 -40.288836 -4.261076 -17.052523 44.462378 1.351363 13.577909 0.000000 0.000000 0.000000 
0.424973 0.660019 0.907349 -149.690304 -67.913867 133.832447 -65.539418 9.828875 -68.659470 125.678879 18.303947 17.011151 -99.187356 -3.146666 93.665100 0.000000 0.000000 0.000000 -54.227413 28.755545 -38.834133 99.788285 47.113571 5.796261 -105.792691 -48.836582 111.818610 0.000000 0.000000 0.000000 27.120065 5.485812 49.140006 3.029290 -3.947475 -18.904730 -7.797184 -28.499445 28.873418 -4.104602 1.262343 -9.013959 0.000000 0.000000 0.000000 -2.380913 3.351561 6.660974 -32.047620 -34.486645 5.151643 -5.428970 -14.385236 1.947568 6.875073 -20.354382 -31.425710 -20.371494 -9.480691 3.859943 -26.988838 -24.469600 -6.496357 0.000000 0.000000 0.000000 -50.429922 -44.225171 9.498758 -116.516657 -19.839433 -44.210819 0.000000 0.000000 0.000000 -5.148821 -25.681105 -23.676175 -123.199684 -9.442169 -20.603655 0.000000 0.000000 0.000000 -39.410037 -36.941933 0.178756 -79.229281 -49.997939 -46.087798 0.000000 0.000000 0.000000 31.299932 0.168112 -9.209402 -31.518249 -3.966520 11.982056 0.000000 0.000000 0.000000 -15.946492 10.505309 8.689505 -35.604804 32.055376 -23.000483 -60.175380 7.091375 -28.691566 -41.418293 15.396225 -66.989292 33.052417 59.100450 32.073468 136.991280 -9.314358 -24.286183 0.000000 0.000000 0.000000 51.068740 65.092349 10.185970 65.515255 54.170029 -67.156616 0.000000 0.000000 0.000000 8.835160 34.586051 -36.906377 -20.835104 -0.576770 60.259530 0.000000 0.000000 0.000000 36.412225 48.484921 -7.199422 144.829146 -7.939816 -7.504101 0.000000 0.000000 0.000000 -43.668002 -5.316832 -17.426830 47.162680 4.310089 14.509599 0.000000 0.000000 0.000000 
0.424973 0.660019 0.907349 -149.690304 -67.913867 133.832447 -65.518116 9.833537 -68.650036 125.673862 18.292885 17.029437 -99.287764 -3.186868 93.689021 0.000000 0.000000 0.000000 -54.184516 28.675839 -39.098184 100.085109 46.739097 6.174127 -105.598860 -48.883481 111.712097 0.000000 0.000000 0.000000 27.120065 5.485812 49.140006 4.448992 -3.587993 -19.134883 -9.335732 -27.765918 28.947767 -4.002619 1.177039 -9.012196 0.000000 0.000000 0.000000 -2.054744 2.693375 6.428079 -31.986770 -34.026019 5.011232 -5.595615 -15.578137 2.178034 6.738530 -17.187799 -30.774314 -22.576241 -11.552713 4.835990 -31.081733 -24.487443 -6.315931 0.000000 0.000000 0.000000 -56.074410 -45.532168 12.670498 -68.287988 -44.224287 -70.299480 0.000000 0.000000 0.000000 -4.129303 -24.345423 -22.790136 -23.290749 -21.422470 -44.408258 0.000000 0.000000 0.000000 -41.852837 -37.895793 1.167495 -101.700945 -26.071869 -32.032321 0.000000 0.000000 0.000000 26.746397 -3.475599 -9.432210 -24.522996 -0.142889 9.790524 0.000000 0.000000 0.000000 -15.848453 9.947636 8.409062 -34.892523 32.125805 -22.527146 -60.468177 7.448538 -28.810459 -41.125819 16.168620 -67.015136 37.046896 60.953459 36.351012 135.404158 -1.799865 -22.883609 0.000000 0.000000 0.000000 52.554936 64.646736 10.868838 62.015242 53.216118 -69.411344 0.000000 0.000000 0.000000 9.077390 34.654663 -36.903602 -19.128593 -2.038311 60.833220 0.000000 0.000000 0.000000 38.179571 48.931969 -6.292821 148.347121 -7.918313 -8.288858 0.000000 0.000000 0.000000 -42.679675 -4.155537 -17.980181 46.235431 3.241438 14.094833 0.000000 0.000000 0.000000 
0.424973 0.660019 0.907349 -149.690304 -67.913867 133.832447 -65.520716 9.833497 -68.641494 125.671215 18.307204 17.024622 -99.309205 -3.199716 93.690956 0.000000 0.000000 0.000000 -54.184516 28.675839 -39.098184 100.085109 46.739097 6.174127 -105.598860 -48.883481 111.712097 0.000000 0.000000 0.000000 27.120065 5.485812 49.140006 4.448992 -3.587993 -19.134883 -9.335732 -27.765918 28.947767 -4.002619 1.177039 -9.012196 0.000000 0.000000 0.000000 -2.054744 2.693375 6.428079 -31.986770 -34.026019 5.011232 -5.502965 -15.599177 2.173820 6.706294 -17.144488 -30.640905 -22.371922 -11.564765 4.752123 -30.860989 -24.499234 -6.380220 0.000000 0.000000 0.000000 -55.507748 -45.447059 12.309564 -69.383283 -43.580499 -68.901314 0.000000 0.000000 0.000000 -3.968564 -24.323798 -22.847340 -21.739429 -20.301604 -43.378875 0.000000 0.000000 0.000000 -41.481024 -37.806037 0.980615 -100.380459 -26.426267 -31.449199 0.000000 0.000000 0.000000 25.381324 -3.356638 -8.829111 -23.794010 -0.277882 9.511841 0.000000 0.000000 0.000000 -15.848453 9.947636 8.409062 -34.858111 32.102312 -22.481987 -60.603593 7.626464 -29.043273 -41.182001 17.028950 -67.120012 38.604122 61.094969 37.465034 134.997895 0.372598 -22.286689 0.000000 0.000000 0.000000 54.227863 64.738830 11.734789 60.405862 53.122043 -70.811139 0.000000 0.000000 0.000000 9.915725 34.645965 -36.603853 -17.725655 -3.371854 60.566179 0.000000 0.000000 0.000000 39.362572 48.970165 -5.769304 143.298679 0.313141 -8.951265 0.000000 0.000000 0.000000 -42.070373 -3.705356 -18.197444 45.582357 2.337987 13.819370 0.000000 0.000000 0.000000 
